<mxfile host="app.diagrams.net" modified="2024-02-29T02:34:13.027Z" agent="Mozilla/5.0 (Windows NT 10.0; Win64; x64) AppleWebKit/537.36 (KHTML, like Gecko) Chrome/121.0.0.0 Safari/537.36" etag="3UfZ0C6ewx70DjkKEbs1" version="23.1.7" type="github">
  <diagram name="EPAI_Java_toModelTrain" id="7vfjrfQk3Y2i5-ylq0UO">
    <mxGraphModel dx="1050" dy="522" grid="1" gridSize="10" guides="1" tooltips="1" connect="1" arrows="1" fold="1" page="1" pageScale="1" pageWidth="827" pageHeight="1169" math="0" shadow="0">
      <root>
        <mxCell id="0" />
        <mxCell id="1" parent="0" />
        <mxCell id="3buf4coTO02b-s-pbajk-6" value="" style="edgeStyle=orthogonalEdgeStyle;rounded=0;orthogonalLoop=1;jettySize=auto;html=1;" edge="1" parent="1" source="3buf4coTO02b-s-pbajk-1" target="3buf4coTO02b-s-pbajk-2">
          <mxGeometry relative="1" as="geometry" />
        </mxCell>
        <mxCell id="3buf4coTO02b-s-pbajk-1" value="数据库根据id和username查找模型(modelResult)" style="rounded=1;whiteSpace=wrap;html=1;" vertex="1" parent="1">
          <mxGeometry x="320" y="160" width="120" height="60" as="geometry" />
        </mxCell>
        <mxCell id="3buf4coTO02b-s-pbajk-7" value="" style="edgeStyle=orthogonalEdgeStyle;rounded=0;orthogonalLoop=1;jettySize=auto;html=1;" edge="1" parent="1" source="3buf4coTO02b-s-pbajk-2" target="3buf4coTO02b-s-pbajk-5">
          <mxGeometry relative="1" as="geometry" />
        </mxCell>
        <mxCell id="3buf4coTO02b-s-pbajk-2" value="websocket传前端：“数据集准备中”" style="rounded=1;whiteSpace=wrap;html=1;" vertex="1" parent="1">
          <mxGeometry x="320" y="260" width="120" height="60" as="geometry" />
        </mxCell>
        <mxCell id="3buf4coTO02b-s-pbajk-3" value="websocket传前端：“生成配置文件”" style="rounded=1;whiteSpace=wrap;html=1;" vertex="1" parent="1">
          <mxGeometry x="160" y="560" width="120" height="60" as="geometry" />
        </mxCell>
        <mxCell id="3buf4coTO02b-s-pbajk-4" value="判断数据集是否转换" style="rhombus;whiteSpace=wrap;html=1;" vertex="1" parent="1">
          <mxGeometry x="315" y="460" width="130" height="60" as="geometry" />
        </mxCell>
        <mxCell id="3buf4coTO02b-s-pbajk-8" value="" style="edgeStyle=orthogonalEdgeStyle;rounded=0;orthogonalLoop=1;jettySize=auto;html=1;" edge="1" parent="1" source="3buf4coTO02b-s-pbajk-5" target="3buf4coTO02b-s-pbajk-4">
          <mxGeometry relative="1" as="geometry" />
        </mxCell>
        <mxCell id="3buf4coTO02b-s-pbajk-5" value="数据库查找model对应的数据集(LabelTask)" style="rounded=1;whiteSpace=wrap;html=1;" vertex="1" parent="1">
          <mxGeometry x="320" y="360" width="120" height="60" as="geometry" />
        </mxCell>
        <mxCell id="3buf4coTO02b-s-pbajk-9" value="" style="endArrow=classic;html=1;rounded=0;exitX=0;exitY=0.5;exitDx=0;exitDy=0;entryX=0.5;entryY=0;entryDx=0;entryDy=0;" edge="1" parent="1" source="3buf4coTO02b-s-pbajk-4" target="3buf4coTO02b-s-pbajk-3">
          <mxGeometry width="50" height="50" relative="1" as="geometry">
            <mxPoint x="350" y="640" as="sourcePoint" />
            <mxPoint x="400" y="590" as="targetPoint" />
            <Array as="points">
              <mxPoint x="220" y="490" />
            </Array>
          </mxGeometry>
        </mxCell>
        <mxCell id="3buf4coTO02b-s-pbajk-10" value="Y" style="text;html=1;align=center;verticalAlign=middle;resizable=0;points=[];autosize=1;strokeColor=none;fillColor=none;" vertex="1" parent="1">
          <mxGeometry x="265" y="458" width="30" height="30" as="geometry" />
        </mxCell>
        <mxCell id="3buf4coTO02b-s-pbajk-11" value="" style="endArrow=classic;html=1;rounded=0;exitX=1;exitY=0.5;exitDx=0;exitDy=0;entryX=0.5;entryY=0;entryDx=0;entryDy=0;" edge="1" target="3buf4coTO02b-s-pbajk-13" parent="1" source="3buf4coTO02b-s-pbajk-4">
          <mxGeometry width="50" height="50" relative="1" as="geometry">
            <mxPoint x="635" y="492" as="sourcePoint" />
            <mxPoint x="720" y="592" as="targetPoint" />
            <Array as="points">
              <mxPoint x="540" y="490" />
            </Array>
          </mxGeometry>
        </mxCell>
        <mxCell id="3buf4coTO02b-s-pbajk-12" value="N" style="text;html=1;align=center;verticalAlign=middle;resizable=0;points=[];autosize=1;strokeColor=none;fillColor=none;" vertex="1" parent="1">
          <mxGeometry x="520" y="460" width="30" height="30" as="geometry" />
        </mxCell>
        <mxCell id="3buf4coTO02b-s-pbajk-21" value="" style="edgeStyle=orthogonalEdgeStyle;rounded=0;orthogonalLoop=1;jettySize=auto;html=1;" edge="1" parent="1" source="3buf4coTO02b-s-pbajk-13" target="3buf4coTO02b-s-pbajk-18">
          <mxGeometry relative="1" as="geometry" />
        </mxCell>
        <mxCell id="3buf4coTO02b-s-pbajk-13" value="websocket传前端：“数据集转换中”" style="rounded=1;whiteSpace=wrap;html=1;" vertex="1" parent="1">
          <mxGeometry x="480" y="560" width="120" height="60" as="geometry" />
        </mxCell>
        <mxCell id="3buf4coTO02b-s-pbajk-23" value="" style="edgeStyle=orthogonalEdgeStyle;rounded=0;orthogonalLoop=1;jettySize=auto;html=1;" edge="1" parent="1" source="3buf4coTO02b-s-pbajk-18" target="3buf4coTO02b-s-pbajk-22">
          <mxGeometry relative="1" as="geometry" />
        </mxCell>
        <mxCell id="3buf4coTO02b-s-pbajk-18" value="生成labelme文件至minio(addDataSetTominio&lt;span style=&quot;background-color: initial;&quot;&gt;)&lt;/span&gt;" style="rounded=1;whiteSpace=wrap;html=1;" vertex="1" parent="1">
          <mxGeometry x="480" y="660" width="120" height="60" as="geometry" />
        </mxCell>
        <mxCell id="3buf4coTO02b-s-pbajk-22" value="数据格式转换(dataFormatTransform)" style="rounded=1;whiteSpace=wrap;html=1;" vertex="1" parent="1">
          <mxGeometry x="480" y="760" width="120" height="60" as="geometry" />
        </mxCell>
        <mxCell id="3buf4coTO02b-s-pbajk-24" value="centerSender.sendPythonMq()" style="rounded=1;whiteSpace=wrap;html=1;" vertex="1" parent="1">
          <mxGeometry x="640" y="860" width="120" height="60" as="geometry" />
        </mxCell>
        <mxCell id="3buf4coTO02b-s-pbajk-30" value="" style="edgeStyle=orthogonalEdgeStyle;rounded=0;orthogonalLoop=1;jettySize=auto;html=1;" edge="1" parent="1" source="3buf4coTO02b-s-pbajk-25" target="3buf4coTO02b-s-pbajk-24">
          <mxGeometry relative="1" as="geometry" />
        </mxCell>
        <mxCell id="3buf4coTO02b-s-pbajk-25" value="拼接minio地址、生成配置文件" style="rounded=1;whiteSpace=wrap;html=1;" vertex="1" parent="1">
          <mxGeometry x="640" y="760" width="120" height="60" as="geometry" />
        </mxCell>
        <mxCell id="3buf4coTO02b-s-pbajk-27" value="" style="endArrow=none;dashed=1;html=1;rounded=0;exitX=1;exitY=0.5;exitDx=0;exitDy=0;entryX=0;entryY=0.5;entryDx=0;entryDy=0;" edge="1" parent="1" source="3buf4coTO02b-s-pbajk-22" target="3buf4coTO02b-s-pbajk-25">
          <mxGeometry width="50" height="50" relative="1" as="geometry">
            <mxPoint x="510" y="910" as="sourcePoint" />
            <mxPoint x="620" y="820" as="targetPoint" />
          </mxGeometry>
        </mxCell>
        <mxCell id="3buf4coTO02b-s-pbajk-31" value="" style="edgeStyle=orthogonalEdgeStyle;rounded=0;orthogonalLoop=1;jettySize=auto;html=1;" edge="1" parent="1" source="3buf4coTO02b-s-pbajk-32" target="3buf4coTO02b-s-pbajk-33">
          <mxGeometry relative="1" as="geometry" />
        </mxCell>
        <mxCell id="3buf4coTO02b-s-pbajk-32" value="centerSender.sendWebData()" style="rounded=1;whiteSpace=wrap;html=1;" vertex="1" parent="1">
          <mxGeometry x="480" y="260" width="120" height="60" as="geometry" />
        </mxCell>
        <mxCell id="3buf4coTO02b-s-pbajk-33" value="rabbitMQ发送至DataExchange交换机" style="rounded=1;whiteSpace=wrap;html=1;" vertex="1" parent="1">
          <mxGeometry x="480" y="360" width="120" height="60" as="geometry" />
        </mxCell>
        <mxCell id="3buf4coTO02b-s-pbajk-35" value="" style="endArrow=none;dashed=1;html=1;rounded=0;exitX=1;exitY=0.5;exitDx=0;exitDy=0;entryX=0;entryY=0.5;entryDx=0;entryDy=0;" edge="1" parent="1" source="3buf4coTO02b-s-pbajk-2" target="3buf4coTO02b-s-pbajk-32">
          <mxGeometry width="50" height="50" relative="1" as="geometry">
            <mxPoint x="430" y="270" as="sourcePoint" />
            <mxPoint x="480" y="220" as="targetPoint" />
          </mxGeometry>
        </mxCell>
        <mxCell id="3buf4coTO02b-s-pbajk-36" value="centerSender.sendPythonMq()" style="rounded=1;whiteSpace=wrap;html=1;" vertex="1" parent="1">
          <mxGeometry x="160" y="760" width="120" height="60" as="geometry" />
        </mxCell>
        <mxCell id="3buf4coTO02b-s-pbajk-38" value="" style="edgeStyle=orthogonalEdgeStyle;rounded=0;orthogonalLoop=1;jettySize=auto;html=1;" edge="1" parent="1" source="3buf4coTO02b-s-pbajk-37" target="3buf4coTO02b-s-pbajk-36">
          <mxGeometry relative="1" as="geometry" />
        </mxCell>
        <mxCell id="3buf4coTO02b-s-pbajk-37" value="生成配置文件" style="rounded=1;whiteSpace=wrap;html=1;" vertex="1" parent="1">
          <mxGeometry x="160" y="660" width="120" height="60" as="geometry" />
        </mxCell>
        <mxCell id="3buf4coTO02b-s-pbajk-39" value="" style="endArrow=classic;html=1;rounded=0;exitX=0.5;exitY=1;exitDx=0;exitDy=0;entryX=0.5;entryY=0;entryDx=0;entryDy=0;" edge="1" parent="1" source="3buf4coTO02b-s-pbajk-3" target="3buf4coTO02b-s-pbajk-37">
          <mxGeometry width="50" height="50" relative="1" as="geometry">
            <mxPoint x="160" y="720" as="sourcePoint" />
            <mxPoint x="210" y="670" as="targetPoint" />
          </mxGeometry>
        </mxCell>
      </root>
    </mxGraphModel>
  </diagram>
</mxfile>
